<svg xmlns="http://www.w3.org/2000/svg" viewBox="0 0 64 64">
  <defs>
    <linearGradient id="bg" x1="0" y1="0" x2="1" y2="1">
      <stop offset="0%" stop-color="#0ea5e9"/>
      <stop offset="100%" stop-color="#2563eb"/>
    </linearGradient>
  </defs>
  <rect width="64" height="64" rx="14" fill="url(#bg)"/>
  <path d="M17 43c4-7 10-7 14-1 4 6 10 6 16-1" fill="none" stroke="#dbeafe" stroke-width="3.5" stroke-linecap="round"/>
  <circle cx="16" cy="43" r="2.6" fill="#ffffff"/>
  <circle cx="46.5" cy="41" r="2.6" fill="#ffffff"/>
  <path d="M32 13c-6.4 0-11.5 5.1-11.5 11.5 0 8.4 11.5 20.1 11.5 20.1s11.5-11.7 11.5-20.1C43.5 18.1 38.4 13 32 13z" fill="#ffffff"/>
  <circle cx="32" cy="24.5" r="4.2" fill="#1d4ed8"/>
  <path d="M48.5 16.5l1.6 3.4 3.4 1.6-3.4 1.6-1.6 3.4-1.6-3.4-3.4-1.6 3.4-1.6z" fill="#fef08a"/>
</svg>
